<svg width="36" height="22" viewBox="0 0 36 22" fill="none" xmlns="http://www.w3.org/2000/svg">
<path fill-rule="evenodd" clip-rule="evenodd" d="M17.6395 21.1263H19.7796C19.7796 21.1263 20.43 21.063 20.7657 20.7046C21.0804 20.3672 21.0804 19.7557 21.0804 19.7557C21.0804 19.7557 21.0174 16.8668 22.3602 16.445C23.682 16.0233 25.3605 19.2285 27.1439 20.4726C28.5077 21.4004 29.5357 21.2107 29.5357 21.2107L34.3194 21.1474C34.3194 21.1474 36.8161 20.9787 35.6412 19.0176C35.5363 18.8489 34.9698 17.5416 32.1164 14.8846C29.1161 12.1012 29.5147 12.544 33.1235 7.71514C35.3055 4.78408 36.1867 2.97062 35.914 2.2115C35.6622 1.49455 34.0257 1.68433 34.0257 1.68433L28.6755 1.7265C28.6755 1.7265 28.2559 1.68433 27.9831 1.85302C27.6894 2.0428 27.5006 2.44345 27.5006 2.44345C27.5006 2.44345 26.6613 4.72082 25.5284 6.6608C23.0946 10.7516 22.1504 10.9625 21.7727 10.7095C20.8706 10.119 21.1014 8.32665 21.1014 7.06145C21.1014 3.11823 21.6888 1.45237 19.9264 1.03064C19.3599 0.883032 18.9193 0.798685 17.4297 0.777599C15.4994 0.756512 13.8839 0.798685 12.9607 1.24151C12.3523 1.53672 11.8907 2.2115 12.1634 2.25367C12.5201 2.29584 13.3174 2.46454 13.737 3.05497C14.3035 3.81409 14.2825 5.50103 14.2825 5.50103C14.2825 5.50103 14.5972 10.1612 13.5482 10.7516C12.8139 11.1312 11.8277 10.3299 9.68768 6.61863C8.59667 4.74191 7.75743 2.63323 7.75743 2.63323C7.75743 2.63323 7.61056 2.23258 7.31683 2.02172C6.98113 1.76868 6.47759 1.68433 6.47759 1.68433L1.3792 1.7265C1.3792 1.7265 0.602903 1.74759 0.35113 2.08498C0.0993582 2.38019 0.330149 3.01279 0.330149 3.01279C0.330149 3.01279 4.31654 12.4175 8.84844 17.1409C13.0027 21.4848 17.7234 21.2107 17.7234 21.2107L17.6395 21.1263Z" fill="#252422"/>
</svg>
