<svg width="29" height="26" viewBox="0 0 29 26" fill="none" xmlns="http://www.w3.org/2000/svg">
<path fill-rule="evenodd" clip-rule="evenodd" d="M20.6331 15.5809C20.271 15.4221 18.5468 14.6439 18.2192 14.5327C17.9089 14.4215 17.6675 14.3739 17.4433 14.6915C17.2019 15.025 16.5295 15.7398 16.3226 15.9621C16.1157 16.1686 15.9088 16.1845 15.5639 16.0415C15.2191 15.8827 14.0811 15.5333 12.7362 14.4374C11.7017 13.5638 10.9947 12.5156 10.7878 12.182C10.5809 11.8644 10.7706 11.6897 10.943 11.515C11.0982 11.372 11.2878 11.1497 11.4775 10.9591C11.6499 10.7526 11.7017 10.6255 11.8223 10.4191C11.943 10.1967 11.8741 10.0061 11.7879 9.84728C11.7017 9.68845 10.9947 8.10018 10.7016 7.46487C10.4257 6.82957 10.1326 6.90898 9.9257 6.90898C9.71879 6.8931 9.4774 6.8931 9.25325 6.8931C9.01186 6.8931 8.63253 6.97251 8.30493 7.27428C7.99457 7.60782 7.08073 8.38607 7.08073 9.95846C7.08073 11.5308 8.33942 13.0715 8.51184 13.2938C8.68426 13.5003 10.9947 16.7563 14.5121 18.1539C15.357 18.4716 16.0122 18.6781 16.5122 18.8369C17.3571 19.0751 18.1158 19.0434 18.7192 18.964C19.3917 18.8687 20.8056 18.1857 21.0987 17.4233C21.3918 16.661 21.3918 16.0257 21.3056 15.8827C21.2194 15.7239 20.9952 15.6445 20.6331 15.5015V15.5809ZM14.2363 23.5699H14.219C12.1327 23.5699 10.0636 23.0458 8.27045 22.0611L7.83939 21.8387L3.44262 22.887L4.61509 18.9481L4.33922 18.5351C3.16674 16.8357 2.56327 14.8662 2.56327 12.8491C2.56327 6.94074 7.78766 2.12828 14.2535 2.12828C17.3743 2.12828 20.2883 3.25596 22.4953 5.28894C24.7023 7.30605 25.9265 9.99023 25.9265 12.865C25.9093 18.7575 20.6849 23.5699 14.2363 23.5699ZM24.185 3.74832C21.4952 1.35003 17.9778 0 14.219 0C6.47725 0 0.166594 5.78131 0.166594 12.8809C0.166594 15.1521 0.821799 17.3757 2.046 19.3293L0.0458984 26L7.49455 24.2053C9.54637 25.2376 11.8568 25.7776 14.219 25.7776C21.9608 25.7776 28.2714 19.9963 28.2714 12.8968C28.2714 9.45021 26.8059 6.21014 24.1678 3.78009L24.185 3.74832Z" fill="#252422"/>
</svg>
