<svg width="36" height="24" viewBox="0 0 36 24" fill="none" xmlns="http://www.w3.org/2000/svg">
<path fill-rule="evenodd" clip-rule="evenodd" d="M15.4295 0.779915C14.218 0.829631 12.9516 0.813059 11.7401 0.846203C9.90464 0.912491 6.39886 1.0285 4.69186 1.32679C2.5994 1.69138 1.31456 2.90113 0.965817 4.79034C0.378461 7.88931 0.121493 11.2866 0.360106 14.4187C0.470235 15.8605 0.745559 19.3074 1.31456 20.4012C2.28737 22.3235 4.06779 22.6881 6.12354 22.9036C11.0243 23.3676 26.8646 23.467 31.5818 22.7213C32.1324 22.6384 32.5729 22.4893 33.0134 22.2904C34.2799 21.7104 35.0875 20.6332 35.3262 19.2743C35.9319 15.8273 36.1338 13.1924 35.9135 9.59623C35.8401 8.15446 35.5464 4.72406 34.9774 3.61373C34.0413 1.75766 32.2609 1.34336 30.1501 1.1445C26.993 0.862775 18.5131 0.630767 15.4295 0.779915ZM14.5851 16.8216C14.9339 16.7222 20.8625 13.5901 21.5416 13.2586L23.8727 12.0655L19.2473 9.62937C18.8251 9.39737 14.9155 7.32586 14.5851 7.22643V16.8216Z" fill="#252422"/>
</svg>
